<svg width="58" height="56" viewBox="0 0 58 56" fill="none" xmlns="http://www.w3.org/2000/svg">
<path fill-rule="evenodd" clip-rule="evenodd" d="M13.25 28C13.25 27.5858 13.5858 27.25 14 27.25H44C44.4142 27.25 44.75 27.5858 44.75 28C44.75 28.4142 44.4142 28.75 44 28.75L14 28.75C13.5858 28.75 13.25 28.4142 13.25 28Z" fill="#231F20"/>
<path fill-rule="evenodd" clip-rule="evenodd" d="M33.4697 38.5303C33.1768 38.2374 33.1768 37.7626 33.4697 37.4697L42.9393 28L33.4697 18.5303C33.1768 18.2374 33.1768 17.7626 33.4697 17.4697C33.7626 17.1768 34.2374 17.1768 34.5303 17.4697L45.0607 28L34.5303 38.5303C34.2374 38.8232 33.7626 38.8232 33.4697 38.5303Z" fill="#231F20"/>
</svg>
