<svg width="58" height="56" viewBox="0 0 58 56" fill="none" xmlns="http://www.w3.org/2000/svg">
<path fill-rule="evenodd" clip-rule="evenodd" d="M44.75 28C44.75 27.5858 44.4142 27.25 44 27.25H14C13.5858 27.25 13.25 27.5858 13.25 28C13.25 28.4142 13.5858 28.75 14 28.75L44 28.75C44.4142 28.75 44.75 28.4142 44.75 28Z" fill="#231F20"/>
<path fill-rule="evenodd" clip-rule="evenodd" d="M24.5303 38.5303C24.8232 38.2374 24.8232 37.7626 24.5303 37.4697L15.0607 28L24.5303 18.5303C24.8232 18.2374 24.8232 17.7626 24.5303 17.4697C24.2374 17.1768 23.7626 17.1768 23.4697 17.4697L12.9393 28L23.4697 38.5303C23.7626 38.8232 24.2374 38.8232 24.5303 38.5303Z" fill="#231F20"/>
</svg>
