<svg width="21" height="20" viewBox="0 0 21 20" fill="none" xmlns="http://www.w3.org/2000/svg">
<path fill-rule="evenodd" clip-rule="evenodd" d="M6.91813 3C7.97698 3 8.96342 3.51773 9.62583 3.95929C9.96923 4.18821 10.2539 4.41603 10.4531 4.58681C10.5531 4.67253 10.6326 4.74476 10.6883 4.79676C10.7162 4.82278 10.7382 4.8438 10.7539 4.859L10.7727 4.87733L10.7785 4.88303L10.7805 4.88499L10.7812 4.88574C10.7812 4.88574 10.8291 5.1245 10.7637 5.41668C11.0015 5.4167 11.0015 5.4168 11.0015 5.4168V17.0828H11.003C11.753 17.0828 11.0015 17.0828 11.0015 17.0828C10.252 17.0828 10.252 17.0828 9.51711 17.0828C9.24367 17.0828 6.5 15 2.5 17.5C2.14127 17.612 2.01176 17.5463 2.02713 17.0988L2.03281 8.41602C2.03245 8.38924 2.02949 7.97754 2.02686 7.45713L2.03281 5.20737C2.75148 4.42128 4.55839 3.001 6.91813 3ZM10.2515 4.66667C10.0695 4.78824 9.94658 4.93426 9.86418 5.08351L10.2515 5.41667L9.86452 5.41566C9.81691 5.41547 9.77555 5.41534 9.73959 5.41534L9.86452 5.41566C9.96379 5.41606 10.0902 5.41667 10.2515 5.41667V4.66667ZM9.86452 5.41566C9.81691 5.41547 9.77555 5.41534 9.73959 5.41534L9.86452 5.41566ZM9.86452 5.41566C9.96379 5.41606 10.0902 5.41667 10.2515 5.41667L9.86452 5.41566ZM9.50148 15.5447C8.84319 15.1234 7.91261 14.6667 6.91813 14.6667C5.8936 14.6667 4.39328 14.9964 3.554 15.416C3.554 14.1048 3.53594 5.8102 3.554 5.79937C3.80261 5.65022 4.14991 5.45179 4.54521 5.25415C5.37273 4.84043 6.27587 4.5 6.91813 4.5C7.52608 4.5 8.20609 4.81561 8.79378 5.20737C9.07543 5.39512 9.31157 5.58397 9.47693 5.72569L9.50148 5.74684V15.5447Z" fill="#231F20"/>
<path fill-rule="evenodd" clip-rule="evenodd" d="M10.2515 4.66667C10.0695 4.78824 9.94658 4.93426 9.86418 5.08351L10.2515 5.41667V4.66667Z" fill="#231F20"/>
<path fill-rule="evenodd" clip-rule="evenodd" d="M11 17.0833H9.5C9.5 17.0833 10.25 17.0833 11 17.0833Z" fill="#231F20"/>
<path d="M11 17.0833C10.25 17.0833 9.5 17.0833 9.5 17.0833C9.5 17.3867 9.68273 17.6602 9.96299 17.7762C10.243 17.8922 10.5594 17.8126 10.7797 17.6143C11 17.416 11 17.2988 11 17.0833Z" fill="#231F20"/>
<path d="M9.73781 5.41668L11 5.4168V5.74684L11.0246 5.7257C11.1899 5.58397 11.4261 5.39512 11.7077 5.20737C12.2953 4.81561 12.9755 4.5 13.5833 4.5C14.9918 4.49829 15.7394 4.79114 17 5.83104V15.5279C15.75 14.916 14.5693 14.6667 13.5833 14.6667C12.5974 14.6667 11.6582 15.1517 11 15.5731V17.0833C13.025 15.3156 14.6802 16.0018 18 17.5C18.2641 17.5927 18.5 17.668 18.5 17.2989V5.42736C16.9517 3.36797 14.75 2.99945 13.5833 3C12.4167 3.00055 11.538 3.51773 10.8757 3.9593C10.5323 4.18821 10.2476 4.41603 10.0484 4.58681C9.94836 4.67253 9.86885 4.74476 9.81313 4.79676C9.78525 4.82278 9.76326 4.84381 9.74756 4.859L9.72876 4.87733L9.72299 4.88303L9.72102 4.88499L9.72027 4.88574C9.72027 4.88574 9.6724 5.1245 9.73781 5.41668Z" fill="#231F20"/>
</svg>
