<svg width="32" height="32" viewBox="0 0 32 32" fill="none" xmlns="http://www.w3.org/2000/svg">
<path fill-rule="evenodd" clip-rule="evenodd" d="M24.0723 8.98736C24.3652 8.69447 24.3652 8.21959 24.0723 7.9267C23.7794 7.63381 23.3045 7.63381 23.0116 7.9267L16.0002 14.9381L8.98877 7.9267C8.69588 7.63381 8.221 7.63381 7.92811 7.9267C7.63522 8.21959 7.63522 8.69447 7.92811 8.98736L14.9395 15.9988L7.9267 23.0116C7.63381 23.3045 7.63381 23.7794 7.9267 24.0723C8.21959 24.3652 8.69447 24.3652 8.98736 24.0723L16.0002 17.0595L23.0131 24.0723C23.3059 24.3652 23.7808 24.3652 24.0737 24.0723C24.3666 23.7794 24.3666 23.3045 24.0737 23.0116L17.0609 15.9988L24.0723 8.98736Z" fill="#231F20"/>
</svg>
