<svg width="20" height="20" viewBox="0 0 20 20" fill="none" xmlns="http://www.w3.org/2000/svg">
<path fill-rule="evenodd" clip-rule="evenodd" d="M16.1109 3.38358C15.0369 2.30964 13.2957 2.30964 12.2218 3.38358L3.38846 12.2169C2.87274 12.7326 2.58301 13.4321 2.58301 14.1615V16.6664V17.4164L3.33301 17.4164H5.83791C6.56726 17.4164 7.26673 17.1266 7.78246 16.6109L16.6158 7.77757C17.6897 6.70363 17.6897 4.96243 16.6158 3.88849L16.1109 3.38358ZM13.2825 4.44424C13.7706 3.95609 14.5621 3.95609 15.0502 4.44424L15.5551 4.94915C16.0433 5.4373 16.0433 6.22876 15.5551 6.71691L14.9997 7.27237L12.727 4.9997L13.2825 4.44424ZM11.6663 6.06036L4.44913 13.2776C4.2147 13.512 4.08301 13.8299 4.08301 14.1615L4.08301 15.9164L5.83791 15.9164C6.16944 15.9164 6.48738 15.7847 6.7218 15.5502L13.939 8.33303L11.6663 6.06036Z" fill="#ffffff"/>
</svg>
